<?xml version="1.0" encoding="utf-8"?>
<!-- Generator: Adobe Illustrator 16.0.0, SVG Export Plug-In . SVG Version: 6.00 Build 0)  -->
<!DOCTYPE svg PUBLIC "-//W3C//DTD SVG 1.1//EN" "http://www.w3.org/Graphics/SVG/1.1/DTD/svg11.dtd">
<svg version="1.1" id="Layer_1" xmlns="http://www.w3.org/2000/svg" xmlns:xlink="http://www.w3.org/1999/xlink" x="0px" y="0px"
	 width="76px" height="91px" viewBox="-331.5 210.5 76 91" enable-background="new -331.5 210.5 76 91" xml:space="preserve">
<path fill="#FFFFFF" d="M-281.238,256.764c-0.953,0.953-2.5,0.953-3.453,0l-4.31-4.31c-1.771,1.136-3.866,1.813-6.127,1.813
	c-6.292,0-11.395-5.101-11.395-11.395c0-6.293,5.102-11.394,11.395-11.394c6.293,0,11.394,5.101,11.394,11.394
	c0,2.262-0.678,4.356-1.813,6.128l4.309,4.309C-280.284,254.263-280.284,255.809-281.238,256.764z M-295.127,234.734
	c-4.495,0-8.139,3.645-8.139,8.139c0,4.496,3.645,8.139,8.139,8.139c4.495,0,8.139-3.643,8.139-8.139
	C-286.989,238.378-290.632,234.734-295.127,234.734z M-293.5,247.756h-3.255V244.5h-3.255v-3.255h3.255v-3.255h3.255v3.255h3.256
	v3.255h-3.256V247.756L-293.5,247.756z"/>
<text transform="matrix(1 0 0 1 -306.7002 284.5)" fill="#FFFFFF" font-family="'STHeitiTC-Light'" font-size="12" letter-spacing="1">放大</text>
</svg>
